<mxfile host="drawio-plugin" modified="2021-03-23T18:31:59.247Z" agent="5.0 (Macintosh; Intel Mac OS X 10_15_7) AppleWebKit/537.36 (KHTML, like Gecko) Chrome/84.0.4147.105 Safari/537.36" version="13.7.9" etag="Ne9uVRBS07MyfDm4wmAD" type="embed"><diagram id="UpRFcIEys_Jf3RSX-zP5" name="Page-1"><mxGraphModel dx="2002" dy="1068" grid="1" gridSize="10" guides="1" tooltips="1" connect="1" arrows="1" fold="1" page="1" pageScale="1" pageWidth="850" pageHeight="1100" math="0" shadow="0"><root><mxCell id="0"/><mxCell id="1" parent="0"/><mxCell id="5" style="edgeStyle=orthogonalEdgeStyle;rounded=0;orthogonalLoop=1;jettySize=auto;html=1;" edge="1" parent="1" source="2" target="3"><mxGeometry relative="1" as="geometry"/></mxCell><mxCell id="2" value="A" style="ellipse;whiteSpace=wrap;html=1;aspect=fixed;fontSize=18;" vertex="1" parent="1"><mxGeometry x="120" y="100" width="80" height="80" as="geometry"/></mxCell><mxCell id="6" style="edgeStyle=orthogonalEdgeStyle;rounded=0;orthogonalLoop=1;jettySize=auto;html=1;entryX=0;entryY=0.5;entryDx=0;entryDy=0;" edge="1" parent="1" source="3" target="4"><mxGeometry relative="1" as="geometry"/></mxCell><mxCell id="3" value="B" style="ellipse;whiteSpace=wrap;html=1;aspect=fixed;fontSize=18;" vertex="1" parent="1"><mxGeometry x="260" y="100" width="80" height="80" as="geometry"/></mxCell><mxCell id="4" value="C" style="ellipse;whiteSpace=wrap;html=1;aspect=fixed;fontSize=18;" vertex="1" parent="1"><mxGeometry x="390" y="100" width="80" height="80" as="geometry"/></mxCell><mxCell id="13" style="edgeStyle=orthogonalEdgeStyle;rounded=0;orthogonalLoop=1;jettySize=auto;html=1;" edge="1" parent="1" source="7" target="8"><mxGeometry relative="1" as="geometry"/></mxCell><mxCell id="14" style="edgeStyle=orthogonalEdgeStyle;rounded=0;orthogonalLoop=1;jettySize=auto;html=1;entryX=0;entryY=0.5;entryDx=0;entryDy=0;" edge="1" parent="1" source="8" target="9"><mxGeometry relative="1" as="geometry"/></mxCell><mxCell id="10" value="Old `master`" style="text;html=1;strokeColor=none;fillColor=none;align=center;verticalAlign=middle;whiteSpace=wrap;rounded=0;fontSize=24;" vertex="1" parent="1"><mxGeometry x="-80" y="140" width="140" height="20" as="geometry"/></mxCell><mxCell id="11" value="&amp;nbsp;New `master`" style="text;html=1;strokeColor=none;fillColor=none;align=center;verticalAlign=middle;whiteSpace=wrap;rounded=0;fontSize=24;" vertex="1" parent="1"><mxGeometry x="-90" y="690" width="160" height="20" as="geometry"/></mxCell><mxCell id="16" value="abc" style="text;html=1;strokeColor=none;fillColor=none;align=center;verticalAlign=middle;whiteSpace=wrap;rounded=0;fontStyle=2;fontSize=18;" vertex="1" parent="1"><mxGeometry x="140" y="190" width="40" height="20" as="geometry"/></mxCell><mxCell id="17" value="def" style="text;html=1;strokeColor=none;fillColor=none;align=center;verticalAlign=middle;whiteSpace=wrap;rounded=0;fontStyle=2;fontSize=18;" vertex="1" parent="1"><mxGeometry x="280" y="190" width="40" height="20" as="geometry"/></mxCell><mxCell id="18" value="ghi" style="text;html=1;strokeColor=none;fillColor=none;align=center;verticalAlign=middle;whiteSpace=wrap;rounded=0;fontStyle=2;fontSize=18;" vertex="1" parent="1"><mxGeometry x="410" y="190" width="40" height="20" as="geometry"/></mxCell><mxCell id="23" value="`.nc`" style="text;html=1;strokeColor=#005700;fillColor=#008a00;align=center;verticalAlign=middle;whiteSpace=wrap;rounded=0;fontColor=#ffffff;" vertex="1" parent="1"><mxGeometry x="140" y="150" width="40" height="20" as="geometry"/></mxCell><mxCell id="65" value="&lt;i style=&quot;font-size: 14px;&quot;&gt;Commit Hash&lt;/i&gt;" style="text;html=1;strokeColor=none;fillColor=none;align=center;verticalAlign=middle;whiteSpace=wrap;rounded=0;fontSize=14;" vertex="1" parent="1"><mxGeometry x="50" y="190" width="90" height="20" as="geometry"/></mxCell><mxCell id="77" style="edgeStyle=orthogonalEdgeStyle;rounded=0;orthogonalLoop=1;jettySize=auto;html=1;entryX=0;entryY=0.5;entryDx=0;entryDy=0;entryPerimeter=0;fontSize=14;" edge="1" parent="1" source="73" target="75"><mxGeometry relative="1" as="geometry"><Array as="points"><mxPoint x="90" y="430"/><mxPoint x="90" y="520"/></Array></mxGeometry></mxCell><mxCell id="84" style="edgeStyle=orthogonalEdgeStyle;rounded=0;orthogonalLoop=1;jettySize=auto;html=1;entryX=0;entryY=0.5;entryDx=0;entryDy=0;entryPerimeter=0;fontSize=14;" edge="1" parent="1" source="73" target="83"><mxGeometry relative="1" as="geometry"/></mxCell><mxCell id="73" value="Forked `master`" style="text;html=1;strokeColor=none;fillColor=none;align=center;verticalAlign=middle;whiteSpace=wrap;rounded=0;fontSize=24;" vertex="1" parent="1"><mxGeometry x="-110" y="420" width="180" height="20" as="geometry"/></mxCell><mxCell id="82" style="edgeStyle=orthogonalEdgeStyle;rounded=0;orthogonalLoop=1;jettySize=auto;html=1;entryX=0.5;entryY=0;entryDx=0;entryDy=0;fontSize=14;" edge="1" parent="1" source="75" target="7"><mxGeometry relative="1" as="geometry"><Array as="points"><mxPoint x="170" y="710"/></Array></mxGeometry></mxCell><mxCell id="75" value="Rebase&amp;nbsp;" style="strokeWidth=2;html=1;shape=mxgraph.flowchart.decision;whiteSpace=wrap;fontSize=14;" vertex="1" parent="1"><mxGeometry x="120" y="470" width="100" height="100" as="geometry"/></mxCell><mxCell id="80" style="edgeStyle=orthogonalEdgeStyle;rounded=0;orthogonalLoop=1;jettySize=auto;html=1;entryX=0.5;entryY=1;entryDx=0;entryDy=0;fontSize=14;" edge="1" parent="1" source="79" target="20"><mxGeometry relative="1" as="geometry"/></mxCell><mxCell id="81" value="`.nc` files purged" style="edgeLabel;html=1;align=center;verticalAlign=middle;resizable=0;points=[];fontSize=14;" vertex="1" connectable="0" parent="80"><mxGeometry y="-3" relative="1" as="geometry"><mxPoint as="offset"/></mxGeometry></mxCell><mxCell id="79" value="Run bfg-repo-cleaner" style="strokeWidth=2;html=1;shape=mxgraph.flowchart.decision;whiteSpace=wrap;fontSize=14;" vertex="1" parent="1"><mxGeometry x="80" y="850" width="180" height="90" as="geometry"/></mxCell><mxCell id="86" style="edgeStyle=orthogonalEdgeStyle;rounded=0;orthogonalLoop=1;jettySize=auto;html=1;entryX=0.5;entryY=1;entryDx=0;entryDy=0;fontSize=14;" edge="1" parent="1" source="83" target="16"><mxGeometry relative="1" as="geometry"/></mxCell><mxCell id="83" value="Original Fork" style="strokeWidth=2;html=1;shape=mxgraph.flowchart.decision;whiteSpace=wrap;fontSize=14;" vertex="1" parent="1"><mxGeometry x="110" y="300" width="100" height="100" as="geometry"/></mxCell><mxCell id="88" value="" style="group" vertex="1" connectable="0" parent="1"><mxGeometry x="130" y="650" width="80" height="100" as="geometry"/></mxCell><mxCell id="7" value="A" style="ellipse;whiteSpace=wrap;html=1;aspect=fixed;fontSize=18;" vertex="1" parent="88"><mxGeometry width="80" height="80" as="geometry"/></mxCell><mxCell id="20" value="jkl" style="text;html=1;strokeColor=none;fillColor=none;align=center;verticalAlign=middle;whiteSpace=wrap;rounded=0;fontStyle=2;fontSize=18;" vertex="1" parent="88"><mxGeometry x="20" y="80" width="40" height="20" as="geometry"/></mxCell><mxCell id="35" value="`.nc`" style="text;html=1;strokeColor=#6F0000;fillColor=#a20025;align=center;verticalAlign=middle;whiteSpace=wrap;rounded=0;fontColor=#ffffff;" vertex="1" parent="88"><mxGeometry x="20" y="50" width="40" height="20" as="geometry"/></mxCell><mxCell id="89" value="" style="group" vertex="1" connectable="0" parent="1"><mxGeometry x="280" y="650" width="80" height="110" as="geometry"/></mxCell><mxCell id="8" value="B" style="ellipse;whiteSpace=wrap;html=1;aspect=fixed;fontSize=18;" vertex="1" parent="89"><mxGeometry width="80" height="80" as="geometry"/></mxCell><mxCell id="21" value="mno" style="text;html=1;strokeColor=none;fillColor=none;align=center;verticalAlign=middle;whiteSpace=wrap;rounded=0;fontStyle=2;fontSize=18;" vertex="1" parent="89"><mxGeometry x="20" y="90" width="40" height="20" as="geometry"/></mxCell><mxCell id="90" value="" style="group" vertex="1" connectable="0" parent="1"><mxGeometry x="425" y="650" width="80" height="110" as="geometry"/></mxCell><mxCell id="9" value="C" style="ellipse;whiteSpace=wrap;html=1;aspect=fixed;fontSize=18;" vertex="1" parent="90"><mxGeometry width="80" height="80" as="geometry"/></mxCell><mxCell id="22" value="pqr" style="text;html=1;strokeColor=none;fillColor=none;align=center;verticalAlign=middle;whiteSpace=wrap;rounded=0;fontStyle=2;fontSize=18;" vertex="1" parent="90"><mxGeometry x="20" y="90" width="40" height="20" as="geometry"/></mxCell></root></mxGraphModel></diagram></mxfile>